<?xml version="1.0" standalone="no"?>
<!DOCTYPE svg PUBLIC "-//W3C//DTD SVG 20010904//EN"
 "http://www.w3.org/TR/2001/REC-SVG-20010904/DTD/svg10.dtd">
<svg version="1.0" xmlns="http://www.w3.org/2000/svg"
 width="7200.000000pt" height="5400.000000pt" viewBox="0 0 7200.000000 5400.000000"
 preserveAspectRatio="xMidYMid meet">

<g transform="translate(0.000000,5400.000000) scale(0.100000,-0.100000)"
fill="#000000" stroke="none">
<path d="M38279 33581 c-177 -65 -181 -67 -379 -178 -164 -92 -298 -151 -415
-185 -89 -25 -251 -30 -460 -14 -252 19 -452 -42 -512 -158 -38 -73 -43 -123
-43 -444 l0 -312 28 6 c205 49 352 114 462 202 70 57 233 205 372 340 70 67
135 122 144 122 25 0 11 -59 -42 -169 -90 -189 -158 -268 -444 -512 -259 -221
-304 -249 -447 -284 -64 -16 -73 -20 -73 -41 0 -20 7 -24 58 -31 213 -30 442
22 675 154 220 124 424 281 593 454 188 194 200 212 488 702 165 280 206 368
185 393 -6 8 -17 14 -23 13 -6 0 -81 -26 -167 -58z"/>
<path d="M40054 33150 c351 -373 634 -861 884 -1525 195 -519 304 -948 364
-1436 19 -160 22 -233 23 -569 0 -255 -4 -422 -13 -495 -78 -666 -226 -1179
-497 -1730 -266 -542 -570 -961 -1024 -1416 -301 -300 -506 -469 -831 -684
-1128 -747 -2487 -1037 -3865 -823 l-139 21 144 47 c416 136 795 293 1268 526
l312 154 0 375 c0 206 -2 375 -4 375 -2 0 -19 -24 -38 -53 -161 -242 -447
-451 -973 -712 -318 -158 -445 -233 -569 -334 -97 -80 -247 -236 -280 -294
-25 -41 -31 -46 -54 -41 -565 125 -1182 387 -1672 709 -511 336 -993 788
-1358 1273 -570 756 -939 1662 -1038 2547 -21 196 -29 660 -15 870 50 712 231
1387 547 2034 181 372 360 664 569 926 95 121 96 123 34 87 -30 -17 -151 -86
-270 -154 l-216 -123 -658 -725 c-362 -399 -676 -744 -698 -767 -35 -36 -41
-51 -53 -118 -21 -119 -52 -413 -65 -605 -16 -250 -6 -762 20 -1006 106 -983
417 -1841 966 -2674 586 -889 1384 -1617 2331 -2129 602 -326 1242 -533 1916
-621 288 -37 410 -44 753 -45 428 0 681 22 1110 95 773 132 1317 304 1915 606
1295 653 2292 1744 2845 3114 336 834 480 1914 384 2885 -12 121 -55 420 -68
475 -8 31 -9 32 -10 8 -2 -62 -54 -47 -119 34 -27 35 -107 146 -177 248 -304
438 -469 636 -839 1005 -397 396 -632 592 -871 726 l-60 33 89 -94z"/>
<path d="M35220 32193 c-146 -51 -247 -169 -375 -437 -71 -149 -185 -430 -212
-524 -10 -34 -25 -64 -33 -67 -21 -6 -349 -42 -505 -55 -174 -15 -285 -29
-307 -41 -54 -29 2 -61 287 -164 240 -87 457 -177 444 -185 -26 -17 -44 -351
-29 -550 50 -676 300 -1294 677 -1676 116 -117 221 -198 430 -330 251 -158
384 -254 619 -441 178 -143 377 -319 337 -298 -10 5 -13 -52 -12 -272 1 -153
3 -271 6 -263 2 8 25 111 51 227 45 200 49 212 65 196 16 -16 17 23 17 678 l0
696 -57 45 c-82 63 -128 94 -323 213 -264 161 -351 241 -438 405 -52 97 -77
176 -98 308 l-17 107 -71 95 c-85 113 -231 268 -335 354 -146 122 -364 268
-554 372 l-87 48 0 276 0 276 144 23 c290 45 533 17 806 -95 47 -19 89 -35 94
-37 5 -1 13 14 18 33 59 234 168 434 327 603 l81 85 0 166 0 166 -120 0 c-150
0 -271 13 -468 51 -173 33 -292 37 -362 12z m-553 -1019 c-3 -3 -12 -4 -19 -1
-8 3 -5 6 6 6 11 1 17 -2 13 -5z"/>
<path d="M36375 31969 c-4 -6 -5 -13 -2 -16 7 -7 27 6 27 18 0 12 -17 12 -25
-2z"/>
<path d="M33573 31734 c-201 -44 -375 -168 -604 -431 l-89 -101 0 -171 c0
-169 0 -171 23 -175 238 -49 285 -68 374 -148 117 -106 239 -145 427 -135 133
7 201 24 321 82 96 45 148 80 172 115 28 40 5 44 -142 25 -87 -11 -160 -15
-200 -10 -62 6 -175 51 -190 75 -4 7 -41 34 -81 60 -116 76 -250 121 -419 141
-49 6 -97 13 -105 16 -29 10 27 22 267 58 131 20 256 40 278 46 63 17 133 56
186 103 112 101 294 101 544 0 61 -24 118 -44 128 -44 62 0 -48 199 -172 311
-151 137 -326 200 -548 198 -59 -1 -136 -7 -170 -15z"/>
</g>
</svg>
